<?xml version="1.0" standalone="no"?>
<!DOCTYPE svg PUBLIC "-//W3C//DTD SVG 20010904//EN"
 "http://www.w3.org/TR/2001/REC-SVG-20010904/DTD/svg10.dtd">
<svg version="1.0" xmlns="http://www.w3.org/2000/svg"
 width="3482.000000pt" height="1098.000000pt" viewBox="0 0 3482.000000 1098.000000"
 preserveAspectRatio="xMidYMid meet">

<g transform="translate(0.000000,1098.000000) scale(0.100000,-0.100000)"
fill="#000000" stroke="none">
<path d="M30555 8983 c-255 -24 -564 -104 -823 -213 -118 -51 -302 -148 -302
-161 0 -10 120 -100 128 -95 4 2 50 28 102 59 52 30 130 72 173 93 62 31 77
43 77 61 0 19 12 26 98 52 876 270 1785 100 2502 -470 47 -37 95 -78 107 -91
l23 -24 -86 -63 c-47 -35 -91 -69 -97 -76 -7 -6 -212 -160 -457 -341 -783
-581 -1416 -1051 -1752 -1301 -179 -134 -329 -243 -332 -243 -3 0 -7 381 -7
848 -1 466 -4 908 -8 982 l-6 135 -43 -88 c-23 -48 -42 -90 -42 -93 0 -8 -69
-146 -94 -187 -95 -156 -268 -292 -435 -344 -42 -12 -46 -12 -67 8 l-23 21
-66 -101 c-55 -84 -71 -101 -93 -103 -15 0 -31 -2 -37 -3 -5 -2 -22 -3 -38 -4
-22 -1 -35 -13 -65 -57 -53 -81 -92 -144 -89 -147 6 -7 -160 -317 -171 -317
-7 0 -40 -55 -72 -122 -33 -68 -60 -120 -60 -116 0 10 40 220 46 239 3 11 -3
18 -16 22 -20 5 -19 9 23 94 24 48 59 127 77 176 19 48 38 87 44 87 6 0 23 22
38 49 23 39 25 50 14 54 -17 7 -45 -41 -170 -290 -77 -155 -88 -184 -111 -295
-13 -68 -32 -186 -40 -263 -12 -103 -24 -159 -46 -214 -16 -40 -26 -77 -24
-81 3 -5 1 -10 -3 -12 -5 -1 -24 -41 -41 -88 -18 -47 -51 -132 -74 -190 l-41
-105 -8 45 c-16 90 -21 444 -9 576 29 300 99 577 217 849 39 89 37 88 89 68 6
-2 21 18 34 44 21 44 22 48 5 60 -9 7 -21 14 -26 15 -6 2 25 63 67 136 68 117
76 137 71 167 -9 45 -76 176 -87 169 -17 -10 -166 -241 -217 -335 -371 -688
-469 -1520 -267 -2287 106 -403 315 -816 580 -1147 103 -129 312 -338 443
-442 398 -319 843 -515 1357 -599 155 -24 527 -30 700 -10 524 61 994 254
1425 586 143 110 419 392 531 542 381 511 584 1072 619 1710 47 860 -265 1700
-855 2306 -167 173 -299 283 -485 408 -366 244 -785 399 -1219 449 -115 14
-473 18 -586 8z m395 -3788 c958 -785 1210 -990 1375 -1120 l70 -56 125 128
c203 207 357 431 480 701 32 71 42 80 68 63 18 -11 -84 -213 -181 -358 -102
-153 -178 -244 -340 -410 -131 -133 -138 -142 -117 -153 19 -10 29 -3 107 72
230 224 421 511 577 871 31 71 74 153 97 183 46 63 96 204 182 514 54 192 55
194 61 145 8 -54 -8 -285 -24 -350 -5 -22 -10 -44 -10 -49 0 -19 53 41 107
121 31 46 58 81 60 80 6 -6 -37 -239 -63 -342 -183 -723 -623 -1349 -1229
-1747 -134 -89 -390 -218 -536 -272 -334 -123 -633 -172 -999 -163 -247 5
-378 22 -596 77 -200 51 -313 94 -529 200 -302 149 -495 288 -746 539 -296
298 -522 649 -667 1041 -59 157 -108 331 -89 309 118 -129 136 -156 172 -254
89 -243 268 -558 441 -775 165 -208 450 -460 680 -602 161 -99 456 -239 472
-223 4 3 8 607 10 1341 3 1027 6 1333 15 1327 7 -4 469 -381 1027 -838z"/>
<path d="M1189 8815 c-15 -8 -32 -29 -38 -46 -8 -23 -11 -813 -11 -2836 0
-3031 -3 -2845 49 -2873 13 -6 163 -10 416 -10 437 0 443 1 464 61 8 22 11
240 11 708 l1 676 139 145 c122 127 140 143 153 130 8 -8 301 -392 651 -853
408 -535 648 -843 666 -852 25 -13 105 -15 515 -15 324 0 493 4 506 11 31 16
41 54 25 92 -7 18 -403 538 -880 1157 -476 619 -866 1127 -866 1131 0 3 349
376 776 830 427 453 785 838 795 854 25 39 24 67 -2 91 -20 18 -45 19 -491 22
-461 3 -471 2 -512 -18 -30 -16 -237 -234 -756 -799 l-715 -778 -5 1561 c-3
859 -9 1569 -14 1579 -22 45 -42 47 -458 47 -322 -1 -398 -3 -419 -15z"/>
<path d="M9700 8812 c-24 -11 -39 -28 -47 -52 -16 -46 -18 -5575 -3 -5632 6
-20 22 -46 37 -58 25 -19 38 -20 430 -20 l405 0 29 29 29 29 0 2821 c0 2087
-3 2827 -11 2845 -25 54 -44 56 -456 56 -340 0 -382 -2 -413 -18z"/>
<path d="M16329 8801 l-29 -29 0 -844 c0 -681 6 -1070 31 -2028 21 -829 34
-1193 42 -1210 7 -14 28 -33 47 -42 31 -16 71 -18 368 -18 373 0 392 3 416 62
11 26 21 311 45 1268 28 1059 32 1348 29 2028 l-3 794 -28 24 -28 24 -430 0
-431 0 -29 -29z"/>
<path d="M6655 7330 c-699 -48 -1239 -368 -1491 -885 -92 -189 -142 -373 -164
-600 -13 -146 -13 -1299 1 -1441 21 -215 72 -400 160 -577 128 -258 346 -484
605 -627 279 -154 602 -236 984 -247 967 -30 1666 404 1870 1159 53 196 52
186 57 938 5 756 1 838 -43 1039 -152 680 -690 1129 -1470 1225 -158 20 -361
26 -509 16z m487 -868 c170 -46 280 -104 378 -202 76 -77 123 -152 161 -258
49 -139 51 -174 47 -917 -4 -772 0 -730 -79 -894 -32 -68 -56 -100 -122 -166
-128 -128 -284 -196 -512 -224 -256 -31 -507 3 -695 95 -131 65 -239 171 -298
294 -79 167 -76 132 -80 898 -3 755 -1 787 59 942 38 100 117 210 194 273 105
85 293 161 445 181 19 2 123 3 230 1 159 -2 209 -7 272 -23z"/>
<path d="M13179 7330 c-356 -20 -756 -84 -1077 -174 -112 -32 -308 -98 -356
-121 -72 -34 -66 225 -66 -2875 0 -1988 3 -2807 11 -2822 24 -45 55 -48 452
-48 248 0 385 4 406 11 64 22 61 -20 61 944 0 522 4 875 9 875 5 0 49 -15 98
-33 444 -169 961 -182 1409 -36 263 85 464 207 655 398 275 275 426 605 468
1020 14 135 14 1171 0 1321 -35 392 -158 708 -375 971 -203 245 -545 438 -914
517 -218 47 -513 66 -781 52z m391 -831 c471 -58 697 -312 730 -819 12 -186
12 -946 0 -1112 -12 -159 -39 -268 -96 -384 -103 -210 -296 -343 -568 -390
-110 -20 -348 -22 -461 -5 -178 27 -360 90 -496 171 l-69 41 0 1199 0 1198 63
21 c119 40 276 67 482 84 97 8 338 6 415 -4z"/>
<path d="M19935 7330 c-380 -20 -783 -94 -1110 -205 -190 -64 -298 -112 -331
-146 l-29 -30 -3 -1920 -2 -1920 29 -30 29 -29 407 0 407 0 29 29 29 29 0
1646 c0 904 4 1647 8 1650 14 9 203 45 322 61 179 25 561 31 689 11 399 -63
602 -275 666 -696 12 -79 15 -301 15 -1350 0 -731 4 -1272 10 -1295 5 -22 21
-50 35 -62 l26 -23 405 0 406 0 29 29 29 29 0 1294 c0 1359 -2 1414 -46 1636
-150 752 -649 1185 -1471 1276 -172 19 -396 25 -578 16z"/>
<path d="M24634 7330 c-876 -52 -1433 -450 -1617 -1155 -59 -223 -60 -243 -65
-870 -2 -387 0 -616 8 -688 73 -709 489 -1202 1161 -1377 181 -47 289 -61 504
-67 222 -6 377 8 581 52 90 20 303 83 372 112 18 7 16 -255 -3 -400 -83 -635
-417 -936 -984 -887 -342 29 -613 124 -905 318 -107 72 -148 82 -186 47 -22
-20 -357 -510 -383 -562 -43 -82 -22 -111 175 -243 376 -252 802 -379 1323
-397 1022 -34 1655 461 1849 1447 57 289 56 261 56 2354 l0 1923 -22 33 c-26
38 -80 63 -303 140 -478 163 -1080 248 -1561 220z m651 -865 c133 -18 236 -38
278 -54 l27 -11 0 -1099 0 -1100 -33 -25 c-89 -68 -279 -132 -482 -163 -153
-23 -421 -23 -538 0 -188 38 -316 99 -421 202 -102 100 -161 213 -198 380 -18
80 -21 137 -25 535 -7 628 9 783 99 970 33 68 57 101 122 165 118 118 247 178
450 211 113 18 560 12 721 -11z"/>
</g>
</svg>
